<?xml version="1.0" encoding="UTF-8" standalone="no"?>
<!DOCTYPE svg PUBLIC "-//W3C//DTD SVG 1.1//EN" "http://www.w3.org/Graphics/SVG/1.1/DTD/svg11.dtd">
<svg width="100%" height="100%" viewBox="0 0 379 188" version="1.1" xmlns="http://www.w3.org/2000/svg" xmlns:xlink="http://www.w3.org/1999/xlink" xml:space="preserve" xmlns:serif="http://www.serif.com/" style="fill-rule:evenodd;clip-rule:evenodd;stroke-linejoin:round;stroke-miterlimit:1.41421;">
    <g transform="matrix(1,0,0,1,-10.8847,-106.106)">
        <g id="second-o" transform="matrix(0.883207,0,0,0.883207,-1296.13,-52.8555)">
            <g transform="matrix(1.33566,3.48898e-33,0,1.33566,296.417,166.915)">
                <path d="M1206.65,89.518C1206.65,100.768 1204.64,111.244 1200.61,120.948C1196.58,130.651 1191.09,139.041 1184.15,146.119C1177.22,153.198 1169.08,158.776 1159.76,162.854C1150.43,166.932 1140.42,168.971 1129.73,168.971C1119.14,168.971 1109.18,166.932 1099.85,162.854C1090.52,158.776 1082.37,153.198 1075.38,146.119C1068.4,139.041 1062.89,130.651 1058.86,120.948C1054.83,111.244 1052.81,100.768 1052.81,89.518C1052.81,78.08 1054.83,67.487 1058.86,57.737C1062.89,47.987 1068.4,39.573 1075.38,32.494C1082.37,25.416 1090.52,19.862 1099.85,15.83C1109.18,11.799 1119.14,9.784 1129.73,9.784C1140.42,9.784 1150.43,11.682 1159.76,15.479C1169.08,19.276 1177.22,24.666 1184.15,31.651C1191.09,38.635 1196.58,47.026 1200.61,56.823C1204.64,66.619 1206.65,77.518 1206.65,89.518ZM1167.98,89.518C1167.98,83.33 1166.98,77.729 1164.96,72.713C1162.94,67.698 1160.2,63.385 1156.73,59.776C1153.26,56.166 1149.21,53.401 1144.57,51.479C1139.93,49.557 1134.98,48.596 1129.73,48.596C1124.48,48.596 1119.54,49.557 1114.9,51.479C1110.26,53.401 1106.23,56.166 1102.8,59.776C1099.38,63.385 1096.69,67.698 1094.72,72.713C1092.75,77.729 1091.76,83.33 1091.76,89.518C1091.76,95.33 1092.75,100.721 1094.72,105.69C1096.69,110.659 1099.38,114.971 1102.8,118.627C1106.23,122.284 1110.26,125.166 1114.9,127.276C1119.54,129.385 1124.48,130.44 1129.73,130.44C1134.98,130.44 1139.93,129.455 1144.57,127.487C1149.21,125.518 1153.26,122.752 1156.73,119.19C1160.2,115.627 1162.94,111.315 1164.96,106.252C1166.98,101.19 1167.98,95.612 1167.98,89.518Z" style="fill:rgb(0,3,51);fill-rule:nonzero;"/>
            </g>
            <g transform="matrix(2.05448,3.08029e-17,-2.77556e-17,1.37842,-1595.25,-670.428)">
                <path d="M1630.21,721.184L1655.22,771.193L1605.21,771.193L1630.21,721.184Z" style="fill:rgb(0,3,51);"/>
            </g>
        </g>
        <g id="first-o" transform="matrix(0.883207,0,0,0.883207,-1296.13,-52.8555)">
            <g transform="matrix(1.33566,0,0,1.33566,296.417,166.915)">
                <path d="M1039.87,89.518C1039.87,100.768 1037.86,111.244 1033.83,120.948C1029.8,130.651 1024.31,139.041 1017.37,146.119C1010.44,153.198 1002.3,158.776 992.975,162.854C983.647,166.932 973.639,168.971 962.951,168.971C952.358,168.971 942.397,166.932 933.069,162.854C923.741,158.776 915.584,153.198 908.6,146.119C901.616,139.041 896.108,130.651 892.076,120.948C888.045,111.244 886.03,100.768 886.03,89.518C886.03,78.08 888.045,67.487 892.076,57.737C896.108,47.987 901.616,39.573 908.6,32.494C915.584,25.416 923.741,19.862 933.069,15.83C942.397,11.799 952.358,9.784 962.951,9.784C973.639,9.784 983.647,11.682 992.975,15.479C1002.3,19.276 1010.44,24.666 1017.37,31.651C1024.31,38.635 1029.8,47.026 1033.83,56.823C1037.86,66.619 1039.87,77.518 1039.87,89.518ZM1001.2,89.518C1001.2,83.33 1000.19,77.729 998.178,72.713C996.162,67.698 993.42,63.385 989.951,59.776C986.483,56.166 982.428,53.401 977.787,51.479C973.147,49.557 968.201,48.596 962.951,48.596C957.701,48.596 952.756,49.557 948.116,51.479C943.475,53.401 939.444,56.166 936.022,59.776C932.6,63.385 929.905,67.698 927.936,72.713C925.967,77.729 924.983,83.33 924.983,89.518C924.983,95.33 925.967,100.721 927.936,105.69C929.905,110.659 932.6,114.971 936.022,118.627C939.444,122.284 943.475,125.166 948.116,127.276C952.756,129.385 957.701,130.44 962.951,130.44C968.201,130.44 973.147,129.455 977.787,127.487C982.428,125.518 986.483,122.752 989.951,119.19C993.42,115.627 996.162,111.315 998.178,106.252C1000.19,101.19 1001.2,95.612 1001.2,89.518Z" style="fill:rgb(0,3,51);fill-rule:nonzero;"/>
            </g>
            <g transform="matrix(-2.05448,3.33067e-16,-1.11022e-16,-1.38593,4983.21,1248.8)">
                <path d="M1630.21,721.184L1655.22,771.193L1605.21,771.193L1630.21,721.184Z" style="fill:rgb(0,3,51);"/>
            </g>
        </g>
    </g>
</svg>
