<?xml version="1.0" encoding="UTF-8" standalone="no"?>
<svg width="180" height="40" viewBox="0 0 1676 358" version="1.1" xmlns="http://www.w3.org/2000/svg" style="fill-rule:evenodd;clip-rule:evenodd;stroke-linejoin:round;stroke-miterlimit:1.41421;">
    <g transform="matrix(1,0,0,1,-354.903,-454.278)">
        <g transform="matrix(1.33566,0,0,1.33566,203.579,513.524)">
            <path d="M151.967,223.534L113.295,223.534L113.295,15.549L122.576,15.549L137.905,33.69C141.373,30.409 145.17,27.315 149.295,24.409C153.42,21.502 157.709,18.994 162.162,16.885C166.616,14.776 171.233,13.112 176.014,11.893C180.795,10.674 185.623,10.065 190.498,10.065C201.092,10.065 211.053,11.963 220.381,15.76C229.709,19.557 237.866,24.924 244.85,31.862C251.834,38.799 257.342,47.166 261.373,56.963C265.405,66.76 267.42,77.612 267.42,89.518C267.42,101.893 265.405,113.026 261.373,122.916C257.342,132.807 251.834,141.198 244.85,148.088C237.866,154.979 229.709,160.252 220.381,163.909C211.053,167.565 201.092,169.393 190.498,169.393C187.123,169.393 183.772,169.018 180.444,168.268C177.116,167.518 173.834,166.51 170.6,165.244C167.366,163.979 164.178,162.549 161.037,160.955C157.897,159.362 154.873,157.721 151.967,156.034L151.967,223.534ZM228.889,89.518C228.889,83.143 227.881,77.424 225.866,72.362C223.85,67.299 221.108,63.01 217.639,59.494C214.17,55.979 210.092,53.284 205.405,51.409C200.717,49.534 195.748,48.596 190.498,48.596C185.248,48.596 180.303,49.534 175.662,51.409C171.022,53.284 166.967,55.979 163.498,59.494C160.03,63.01 157.287,67.299 155.272,72.362C153.256,77.424 152.248,83.143 152.248,89.518C152.248,95.612 153.256,101.19 155.272,106.252C157.287,111.315 160.03,115.627 163.498,119.19C166.967,122.752 171.022,125.518 175.662,127.487C180.303,129.455 185.248,130.44 190.498,130.44C195.748,130.44 200.717,129.455 205.405,127.487C210.092,125.518 214.17,122.752 217.639,119.19C221.108,115.627 223.85,111.315 225.866,106.252C227.881,101.19 228.889,95.612 228.889,89.518Z" style="fill:#ffffff;fill-rule:nonzero;"/>
            <path d="M434.201,89.518C434.201,100.768 432.186,111.244 428.155,120.948C424.123,130.651 418.639,139.041 411.701,146.119C404.764,153.198 396.631,158.776 387.303,162.854C377.975,166.932 367.967,168.971 357.28,168.971C346.686,168.971 336.725,166.932 327.397,162.854C318.069,158.776 309.912,153.198 302.928,146.119C295.944,139.041 290.436,130.651 286.405,120.948C282.373,111.244 280.358,100.768 280.358,89.518C280.358,78.08 282.373,67.487 286.405,57.737C290.436,47.987 295.944,39.573 302.928,32.494C309.912,25.416 318.069,19.862 327.397,15.83C336.725,11.799 346.686,9.784 357.28,9.784C367.967,9.784 377.975,11.682 387.303,15.479C396.631,19.276 404.764,24.666 411.701,31.651C418.639,38.635 424.123,47.026 428.155,56.823C432.186,66.619 434.201,77.518 434.201,89.518ZM395.53,89.518C395.53,83.33 394.522,77.729 392.506,72.713C390.491,67.698 387.748,63.385 384.28,59.776C380.811,56.166 376.756,53.401 372.116,51.479C367.475,49.557 362.53,48.596 357.28,48.596C352.03,48.596 347.084,49.557 342.444,51.479C337.803,53.401 333.772,56.166 330.35,59.776C326.928,63.385 324.233,67.698 322.264,72.713C320.295,77.729 319.311,83.33 319.311,89.518C319.311,95.33 320.295,100.721 322.264,105.69C324.233,110.659 326.928,114.971 330.35,118.627C333.772,122.284 337.803,125.166 342.444,127.276C347.084,129.385 352.03,130.44 357.28,130.44C362.53,130.44 367.475,129.455 372.116,127.487C376.756,125.518 380.811,122.752 384.28,119.19C387.748,115.627 390.491,111.315 392.506,106.252C394.522,101.19 395.53,95.612 395.53,89.518Z" style="fill:#ffffff;fill-rule:nonzero;"/>
            <path d="M538.123,166.159L450.373,166.159L450.373,127.909L538.123,127.909C540.748,127.909 542.998,126.971 544.873,125.096C546.748,123.221 547.686,120.971 547.686,118.346C547.686,115.627 546.748,113.846 544.873,113.002C542.998,112.159 540.748,111.737 538.123,111.737L498.186,111.737C491.53,111.737 485.295,110.471 479.483,107.94C473.67,105.409 468.608,101.963 464.295,97.604C459.983,93.244 456.584,88.159 454.1,82.346C451.616,76.534 450.373,70.299 450.373,63.643C450.373,56.987 451.616,50.752 454.1,44.94C456.584,39.127 459.983,34.065 464.295,29.752C468.608,25.44 473.67,22.041 479.483,19.557C485.295,17.073 491.53,15.83 498.186,15.83L575.951,15.83L575.951,54.08L498.186,54.08C495.561,54.08 493.311,55.018 491.436,56.893C489.561,58.768 488.623,61.018 488.623,63.643C488.623,66.362 489.561,68.682 491.436,70.604C493.311,72.526 495.561,73.487 498.186,73.487L538.123,73.487C544.686,73.487 550.873,74.588 556.686,76.791C562.498,78.994 567.561,82.065 571.873,86.002C576.186,89.94 579.608,94.674 582.139,100.205C584.67,105.737 585.936,111.784 585.936,118.346C585.936,125.002 584.67,131.213 582.139,136.979C579.608,142.744 576.186,147.807 571.873,152.166C567.561,156.526 562.498,159.948 556.686,162.432C550.873,164.916 544.686,166.159 538.123,166.159Z" style="fill:#ffffff;fill-rule:nonzero;"/>
            <path d="M681.842,166.159C672.561,166.159 663.842,164.401 655.686,160.885C647.53,157.369 640.381,152.541 634.241,146.401C628.1,140.26 623.272,133.112 619.756,124.955C616.241,116.799 614.483,108.08 614.483,98.799L614.483,54.08L595.78,54.08L595.78,15.83L614.483,15.83L614.483,-44.357L652.733,-44.357L652.733,15.83L710.951,15.83L710.951,54.08L652.733,54.08L652.733,98.799C652.733,102.83 653.483,106.604 654.983,110.119C656.483,113.635 658.545,116.705 661.17,119.33C663.795,121.955 666.889,124.041 670.451,125.588C674.014,127.135 677.811,127.909 681.842,127.909L710.951,127.909L710.951,166.159L681.842,166.159Z" style="fill:#ffffff;fill-rule:nonzero;"/>
            <path d="M770.858,166.159L732.467,166.159L732.467,-44.357L770.858,-44.357L770.858,22.159C775.451,18.69 780.186,16.229 785.061,14.776C789.936,13.323 794.905,12.596 799.967,12.596C809.248,12.596 817.967,14.354 826.123,17.869C834.28,21.385 841.381,26.213 847.428,32.354C853.475,38.494 858.256,45.666 861.772,53.869C865.287,62.073 867.045,70.815 867.045,80.096L867.045,166.159L828.373,166.159L828.373,80.096L828.655,80.096C828.655,76.159 827.905,72.432 826.405,68.916C824.905,65.401 822.842,62.33 820.217,59.705C817.592,57.08 814.545,55.018 811.076,53.518C807.608,52.018 803.905,51.268 799.967,51.268C795.936,51.268 792.139,52.018 788.576,53.518C785.014,55.018 781.92,57.08 779.295,59.705C776.67,62.33 774.608,65.401 773.108,68.916C771.608,72.432 770.858,76.159 770.858,80.096L770.858,166.159Z" style="fill:#ffffff;fill-rule:nonzero;"/>
            <path d="M1039.87,89.518C1039.87,100.768 1037.86,111.244 1033.83,120.948C1029.8,130.651 1024.31,139.041 1017.37,146.119C1010.44,153.198 1002.3,158.776 992.975,162.854C983.647,166.932 973.639,168.971 962.951,168.971C952.358,168.971 942.397,166.932 933.069,162.854C923.741,158.776 915.584,153.198 908.6,146.119C901.616,139.041 896.108,130.651 892.076,120.948C888.045,111.244 886.03,100.768 886.03,89.518C886.03,78.08 888.045,67.487 892.076,57.737C896.108,47.987 901.616,39.573 908.6,32.494C915.584,25.416 923.741,19.862 933.069,15.83C942.397,11.799 952.358,9.784 962.951,9.784C973.639,9.784 983.647,11.682 992.975,15.479C1002.3,19.276 1010.44,24.666 1017.37,31.651C1024.31,38.635 1029.8,47.026 1033.83,56.823C1037.86,66.619 1039.87,77.518 1039.87,89.518ZM1001.2,89.518C1001.2,83.33 1000.19,77.729 998.178,72.713C996.162,67.698 993.42,63.385 989.951,59.776C986.483,56.166 982.428,53.401 977.787,51.479C973.147,49.557 968.201,48.596 962.951,48.596C957.701,48.596 952.756,49.557 948.116,51.479C943.475,53.401 939.444,56.166 936.022,59.776C932.6,63.385 929.905,67.698 927.936,72.713C925.967,77.729 924.983,83.33 924.983,89.518C924.983,95.33 925.967,100.721 927.936,105.69C929.905,110.659 932.6,114.971 936.022,118.627C939.444,122.284 943.475,125.166 948.116,127.276C952.756,129.385 957.701,130.44 962.951,130.44C968.201,130.44 973.147,129.455 977.787,127.487C982.428,125.518 986.483,122.752 989.951,119.19C993.42,115.627 996.162,111.315 998.178,106.252C1000.19,101.19 1001.2,95.612 1001.2,89.518Z" style="fill:#ffffff;fill-rule:nonzero;"/>
            <path d="M1206.65,89.518C1206.65,100.768 1204.64,111.244 1200.61,120.948C1196.58,130.651 1191.09,139.041 1184.15,146.119C1177.22,153.198 1169.08,158.776 1159.76,162.854C1150.43,166.932 1140.42,168.971 1129.73,168.971C1119.14,168.971 1109.18,166.932 1099.85,162.854C1090.52,158.776 1082.37,153.198 1075.38,146.119C1068.4,139.041 1062.89,130.651 1058.86,120.948C1054.83,111.244 1052.81,100.768 1052.81,89.518C1052.81,78.08 1054.83,67.487 1058.86,57.737C1062.89,47.987 1068.4,39.573 1075.38,32.494C1082.37,25.416 1090.52,19.862 1099.85,15.83C1109.18,11.799 1119.14,9.784 1129.73,9.784C1140.42,9.784 1150.43,11.682 1159.76,15.479C1169.08,19.276 1177.22,24.666 1184.15,31.651C1191.09,38.635 1196.58,47.026 1200.61,56.823C1204.64,66.619 1206.65,77.518 1206.65,89.518ZM1167.98,89.518C1167.98,83.33 1166.98,77.729 1164.96,72.713C1162.94,67.698 1160.2,63.385 1156.73,59.776C1153.26,56.166 1149.21,53.401 1144.57,51.479C1139.93,49.557 1134.98,48.596 1129.73,48.596C1124.48,48.596 1119.54,49.557 1114.9,51.479C1110.26,53.401 1106.23,56.166 1102.8,59.776C1099.38,63.385 1096.69,67.698 1094.72,72.713C1092.75,77.729 1091.76,83.33 1091.76,89.518C1091.76,95.33 1092.75,100.721 1094.72,105.69C1096.69,110.659 1099.38,114.971 1102.8,118.627C1106.23,122.284 1110.26,125.166 1114.9,127.276C1119.54,129.385 1124.48,130.44 1129.73,130.44C1134.98,130.44 1139.93,129.455 1144.57,127.487C1149.21,125.518 1153.26,122.752 1156.73,119.19C1160.2,115.627 1162.94,111.315 1164.96,106.252C1166.98,101.19 1167.98,95.612 1167.98,89.518Z" style="fill:#ffffff;fill-rule:nonzero;"/>
            <path d="M1266.56,166.159L1227.89,166.159L1227.89,-44.357L1266.56,-44.357L1266.56,88.393L1323.8,15.83L1367.95,15.83L1318.03,78.549L1367.95,166.159L1323.8,166.159L1293.28,111.455L1266.56,146.893L1266.56,166.159Z" style="fill:#ffffff;fill-rule:nonzero;"/>
        </g>
        <g transform="matrix(2.05448,3.08029e-17,-2.77556e-17,1.37842,-1688.09,-323.819)">
            <path d="M1630.21,721.184L1655.22,771.193L1605.21,771.193L1630.21,721.184Z" style="fill:#ffffff;"/>
        </g>
        <g transform="matrix(-2.05448,3.33067e-16,-1.11022e-16,-1.38593,4890.37,1595.41)">
            <path d="M1630.21,721.184L1655.22,771.193L1605.21,771.193L1630.21,721.184Z" style="fill:#ffffff;"/>
        </g>
    </g>
</svg>
